<svg width="113" height="36" viewBox="0 0 113 36" fill="none" xmlns="http://www.w3.org/2000/svg">
<g clip-path="url(#clip0_79_1498)">
<path d="M34.8464 1.15003C34.628 0.962524 34.2633 0.857161 33.7471 0.841089C33.3644 0.821445 32.8571 0.791086 32.2199 0.753584C31.5809 0.716082 30.8769 0.678581 30.1079 0.641079C29.3371 0.603577 28.5176 0.571432 27.6529 0.542859C26.7847 0.514286 25.9344 0.5 25.0986 0.5C24.2015 0.5 23.1274 0.546431 21.8729 0.641079C20.6147 0.735726 19.3041 0.896449 17.9322 1.12146C16.5603 1.34647 15.1975 1.6572 13.8346 2.05365C12.4753 2.44831 11.255 2.94834 10.181 3.55016C9.1033 4.15376 8.23322 4.87344 7.56893 5.70919C6.90283 6.54674 6.56708 7.52357 6.56708 8.63434C6.56708 9.33081 6.70066 9.9362 6.96782 10.4559C7.23317 10.9737 7.58157 11.4023 8.00938 11.7416C8.43901 12.0792 8.93181 12.3327 9.49502 12.5024C10.0546 12.6738 10.6214 12.7578 11.1937 12.7578C12.1829 12.7578 13.1288 12.5881 14.0331 12.2488C14.9375 11.9113 15.7318 11.4577 16.4177 10.8952C17.1037 10.3291 17.6488 9.67547 18.0586 8.93079C18.4684 8.18611 18.6724 7.40928 18.6724 6.60031C18.6724 6.3378 18.6669 6.07886 18.6579 5.82349C18.6489 5.5699 18.6146 5.31096 18.5586 5.04666L18.2427 5.07523C18.3005 5.49133 18.3276 5.90563 18.3276 6.31994C18.3276 7.18606 18.1146 7.94859 17.6867 8.60756C17.2571 9.26652 16.7047 9.80762 16.0314 10.2309C15.3545 10.6541 14.6126 10.9755 13.8039 11.1916C12.9952 11.4077 12.2099 11.5148 11.4482 11.5148C10.9355 11.5148 10.412 11.4488 9.87951 11.3184C9.34519 11.1863 8.85961 10.9952 8.42276 10.738C7.98411 10.4844 7.62308 10.1612 7.33607 9.76476C7.05086 9.3701 6.90825 8.9165 6.90825 8.41112C6.90825 7.63965 7.12667 6.95569 7.56532 6.3628C8.00216 5.7717 8.60689 5.25203 9.37768 4.80915C10.1485 4.36805 11.0438 3.98946 12.0601 3.68052C13.0782 3.368 14.1667 3.12513 15.3292 2.94655C16.4899 2.76797 17.6904 2.63404 18.9251 2.5501C20.1616 2.46796 21.371 2.42331 22.5498 2.42331C23.0083 2.42331 23.5011 2.42867 24.0354 2.4376C24.5697 2.4501 25.086 2.4626 25.5915 2.48046C26.0969 2.49832 26.5626 2.5251 26.9904 2.5501C27.4201 2.57868 27.7757 2.61261 28.0609 2.65011V2.70726C26.8442 3.06442 25.7954 3.48408 24.9199 3.96268C24.0444 4.44306 23.2592 5.01452 22.566 5.67169C21.8693 6.33065 21.223 7.09855 20.6237 7.9736C20.0226 8.84864 19.3926 9.86119 18.7265 11.0113C18.1362 12.0274 17.5243 13.0899 16.8853 14.2007C16.2462 15.3133 15.5422 16.324 14.7714 17.2384C14.0006 18.1509 13.1396 18.9045 12.1883 19.4992C11.7496 19.7742 11.2821 19.9831 10.7821 20.1278L10.6936 20.5975C11.3182 20.5082 11.9103 20.3742 12.4753 20.1921C13.5782 19.8331 14.6018 19.3206 15.5422 18.6527C16.4845 17.983 17.36 17.1741 18.1687 16.224C18.9774 15.274 19.7446 14.1953 20.4685 12.9899C21.1725 11.8238 21.8548 10.6362 22.5119 9.4326C23.1672 8.22539 23.8423 7.13427 24.5373 6.15565C25.2322 5.17702 25.9633 4.37698 26.7359 3.75374C27.5067 3.13228 28.3569 2.82155 29.2902 2.82155C29.783 2.82155 30.3318 2.84119 30.9329 2.87869C31.5304 2.91619 32.1929 2.93584 32.9167 2.93584C33.6965 2.93584 34.2688 2.83226 34.6298 2.62689C34.9908 2.41795 35.1731 2.16437 35.1731 1.86436C35.1731 1.58041 35.0612 1.34647 34.8428 1.15718L34.8464 1.15003Z" fill="#9546E8"/>
<path d="M38.9712 12.8435C38.4567 13.5025 37.8574 14.2132 37.1732 14.9757C36.4909 15.7329 35.7815 16.4597 35.045 17.1526C35.0396 17.1562 35.036 17.1616 35.0324 17.1651C34.0612 18.0688 33.0954 18.7563 32.1351 19.2277C31.173 19.6992 30.2939 19.9331 29.4942 19.9331C28.6945 19.9331 28.0374 19.6796 27.5807 19.1706C27.124 18.6616 26.8948 18.0027 26.8948 17.1937C26.8948 16.8937 26.9417 16.5544 27.0374 16.1776C27.3804 16.1026 27.8172 16.0079 28.3515 15.8954C28.884 15.7829 29.4545 15.6401 30.0646 15.4722C30.6729 15.3025 31.2867 15.1043 31.9058 14.8793C32.525 14.6543 33.081 14.39 33.5774 14.0882C34.072 13.7864 34.4764 13.4489 34.7905 13.0703C35.1046 12.6953 35.2616 12.2792 35.2616 11.8274C35.2616 11.2631 35.0342 10.8255 34.5757 10.5148C34.119 10.2041 33.4817 10.0487 32.6622 10.0487C31.7687 10.0487 30.821 10.2666 29.8209 10.6987C28.8209 11.1327 27.9039 11.697 27.0663 12.3935C26.2287 13.0899 25.5337 13.881 24.9813 14.765C24.429 15.6508 24.1528 16.5455 24.1528 17.4491C24.1528 18.467 24.4669 19.2956 25.0951 19.9349C25.7232 20.5742 26.5807 20.8957 27.6656 20.8957C28.7505 20.8957 29.8697 20.6742 31.0773 20.2314C32.1315 19.8456 33.2254 19.1831 34.3608 18.2438C34.5269 18.1063 34.693 17.9634 34.8609 17.8152C35.7923 16.9687 36.5974 16.1579 37.2725 15.3865C37.9477 14.615 38.5813 13.8346 39.1715 13.0435L38.9712 12.8453V12.8435ZM27.8226 14.2418C28.1945 13.6114 28.6223 13.0096 29.1079 12.4345C29.5935 11.8613 30.1115 11.3756 30.6639 10.9809C31.2163 10.5862 31.7308 10.388 32.2055 10.388C32.4348 10.388 32.6189 10.4452 32.7633 10.5577C32.9059 10.6702 32.9763 10.8595 32.9763 11.122C32.9763 11.5738 32.8138 12.0488 32.4907 12.5488C32.1676 13.0471 31.7344 13.5185 31.1928 13.9614C30.6495 14.4043 30.0267 14.7989 29.3227 15.1472C28.6187 15.4954 27.8768 15.7436 27.0952 15.8954C27.2089 15.424 27.4526 14.874 27.8226 14.2418Z" fill="#9546E8"/>
<path d="M59.2122 13.1256C58.6977 13.7846 58.0948 14.515 57.3998 15.315C57.0514 15.7169 56.6994 16.1079 56.3438 16.4865C55.99 16.8651 55.6344 17.233 55.2734 17.5902C53.5025 19.342 52.2281 20.2171 51.4483 20.2171C51.2389 20.2171 51.0872 20.1474 50.9916 20.0046C50.8959 19.8635 50.849 19.6903 50.849 19.4831C50.849 18.9742 51.0584 18.4098 51.4772 17.7884C51.8959 17.1669 52.3617 16.5276 52.8761 15.8669C53.3906 15.2079 53.8563 14.5436 54.2751 13.8757C54.6939 13.2078 54.9033 12.5524 54.9033 11.9131C54.9033 11.4238 54.7174 10.9898 54.3455 10.613C53.9755 10.2362 53.4845 10.0487 52.8761 10.0487C52.2678 10.0487 51.6143 10.2326 50.9771 10.6005C50.3399 10.9684 49.7298 11.4148 49.1503 11.9417C48.5709 12.4703 48.0311 13.0292 47.5383 13.6221C47.0419 14.215 46.6141 14.7382 46.2531 15.19L46.1953 15.1329C46.3487 14.9079 46.5148 14.6489 46.6953 14.3561C46.8758 14.0632 47.0383 13.7721 47.1809 13.481C47.3235 13.1882 47.4427 12.8935 47.5383 12.5917C47.6322 12.2899 47.6809 12.0077 47.6809 11.7434C47.6809 11.1791 47.495 10.7541 47.1232 10.4719C46.7513 10.1898 46.3 10.0487 45.7675 10.0487C45.0057 10.0487 44.2873 10.2469 43.6103 10.6416C42.9352 11.038 42.3016 11.5166 41.7113 12.0827C41.1211 12.6471 40.5741 13.2399 40.0705 13.8614C39.5668 14.4829 39.1137 15.0204 38.7148 15.4722L38.657 15.4151L42.4533 10.2755L39.1119 10.4452C38.1227 12.1595 37.1136 13.84 36.0847 15.4865C35.7381 16.0419 35.3915 16.599 35.0413 17.1544C34.8139 17.5169 34.5865 17.8812 34.3572 18.2438C33.8987 18.9759 33.4366 19.7081 32.9727 20.4421L35.8573 20.3296C36.0847 19.9331 36.3988 19.426 36.7996 18.8045C37.1985 18.183 37.6552 17.5152 38.1697 16.799C38.6841 16.0847 39.2311 15.3686 39.8105 14.6525C40.39 13.9364 40.9676 13.2864 41.538 12.7024C42.1085 12.1185 42.6554 11.6434 43.1789 11.2773C43.7024 10.9095 44.1627 10.7255 44.5635 10.7255C44.8487 10.7255 45.0581 10.8202 45.1898 11.0077C45.3234 11.197 45.3902 11.4041 45.3902 11.6291C45.3902 11.9684 45.2422 12.4292 44.948 13.0131C44.6519 13.5971 44.262 14.2703 43.7764 15.0329C43.2908 15.7954 42.7385 16.633 42.1211 17.5473C41.5019 18.4616 40.8701 19.426 40.2221 20.4421L42.5814 20.3546L43.2475 20.3296C43.2854 20.2653 43.3251 20.1957 43.3667 20.1242C43.5797 19.7617 43.8486 19.3224 44.1754 18.8027C44.5653 18.1813 45.0129 17.5134 45.5166 16.7973C46.0202 16.0829 46.5527 15.3668 47.1159 14.6507C47.6773 13.9346 48.2441 13.2846 48.8146 12.7006C49.385 12.1167 49.932 11.6416 50.4554 11.2756C50.9789 10.9077 51.441 10.7237 51.84 10.7237C52.0494 10.7237 52.2299 10.7934 52.3815 10.9345C52.535 11.0755 52.6108 11.2791 52.6108 11.5416C52.6108 11.8988 52.4014 12.3649 51.9826 12.9399C51.5638 13.515 51.0981 14.1311 50.5836 14.79C50.0691 15.449 49.6034 16.1276 49.1846 16.8223C48.7658 17.5205 48.5564 18.1688 48.5564 18.7724C48.5564 19.3367 48.7424 19.8028 49.1142 20.1707C49.4861 20.5385 50.0024 20.7225 50.6703 20.7225C51.0132 20.7225 51.3508 20.6707 51.6829 20.5671C52.0151 20.4635 52.3689 20.2992 52.7389 20.0724C53.1108 19.8474 53.5152 19.551 53.952 19.1831C54.3906 18.8152 54.8762 18.3688 55.4088 17.842C55.582 17.6705 55.7535 17.4973 55.9232 17.3187C56.1489 17.0848 56.3727 16.8455 56.5929 16.599C56.9828 16.1651 57.3493 15.7472 57.6923 15.3418C58.0352 14.9365 58.3547 14.5561 58.649 14.1971C58.9432 13.84 59.205 13.5203 59.4342 13.2364L59.205 13.1239L59.2122 13.1256Z" fill="#9546E8"/>
<path d="M66.5501 12.9274C66.3786 13.1149 66.1548 13.3703 65.8804 13.69C65.6042 14.0114 65.2901 14.3686 64.9381 14.7632C64.5861 15.1597 64.2089 15.5686 63.8099 15.9919C63.6944 16.1151 63.5771 16.2383 63.4597 16.3615C63.1727 16.6633 62.8803 16.9687 62.5824 17.2776C61.5354 18.3331 60.6654 19.0759 59.9704 19.5081C59.2754 19.9421 58.7375 20.1581 58.3566 20.1581C58.1851 20.1581 58.0569 20.0885 57.9721 19.9456C57.8872 19.8046 57.8439 19.6206 57.8439 19.3956C57.8439 19.1134 57.945 18.7509 58.1436 18.3081C58.344 17.8652 58.6472 17.2955 59.057 16.599C59.4649 15.9026 59.9938 15.0597 60.6419 14.0703C61.2881 13.0828 62.0589 11.8917 62.9543 10.4969L60.0137 10.638C59.1563 11.9577 58.4432 13.0631 57.8728 13.9578C57.3024 14.8525 56.8439 15.6008 56.5027 16.2026C56.4467 16.299 56.3962 16.3919 56.3457 16.483C56.1796 16.7883 56.0406 17.0669 55.9323 17.3169C55.8709 17.458 55.8168 17.5902 55.7734 17.7134C55.6308 18.117 55.5604 18.5098 55.5604 18.8849C55.5604 19.4313 55.7319 19.8742 56.0749 20.2135C56.4179 20.5528 56.9034 20.7225 57.5316 20.7225C58.1977 20.7225 58.9252 20.5046 59.7159 20.0724C60.5047 19.6403 61.4524 18.8777 62.5571 17.7848C62.7034 17.6402 62.8496 17.4937 62.9976 17.3455C63.2377 17.1044 63.4814 16.8544 63.7287 16.599C64.1294 16.1847 64.5193 15.7668 64.9002 15.3418C65.2811 14.9168 65.6385 14.5132 65.9707 14.1275C66.3028 13.7417 66.5844 13.3989 66.8119 13.0971L66.5555 12.9274H66.5501ZM65.5663 4.62342C65.2901 4.35912 64.9706 4.22876 64.6096 4.22876C64.1709 4.22876 63.7864 4.3752 63.4543 4.66628C63.1222 4.95915 62.9543 5.31989 62.9543 5.75384C62.9543 6.18779 63.1059 6.51281 63.411 6.72889C63.716 6.94497 64.0771 7.0539 64.4959 7.0539C64.875 7.0539 65.2179 6.89854 65.523 6.58781C65.8263 6.27708 65.9797 5.93242 65.9797 5.55561C65.9797 5.19845 65.8425 4.88772 65.5663 4.62342Z" fill="#9546E8"/>
<path d="M74.1443 12.9274C73.5161 13.756 72.841 14.5757 72.1171 15.3847C71.7922 15.749 71.4799 16.0901 71.1785 16.4115C70.8066 16.808 70.4546 17.1705 70.1189 17.5026C69.2253 18.3509 68.3877 19.0152 67.6061 19.4938C66.8263 19.9742 66.1981 20.2153 65.7233 20.2153C65.476 20.2153 65.2847 20.1403 65.1529 19.9885C65.0193 19.8385 64.9525 19.6403 64.9525 19.3956C64.9525 19.1134 65.0338 18.7831 65.1962 18.4063C65.3569 18.0295 65.615 17.5259 65.967 16.8955C66.319 16.2651 66.7902 15.474 67.3805 14.5221C67.9707 13.5721 68.6946 12.3988 69.5502 11.0059H73.2327L73.4909 10.4969H69.8643L72.2345 6.82532L69.1513 6.93782L67.0104 10.4969H64.8117L64.6114 11.0059H66.7523C66.1818 11.9845 65.6475 12.8524 65.1529 13.6042C64.6565 14.3578 64.2251 15.0454 63.8532 15.6668C63.7106 15.9061 63.5788 16.1383 63.4597 16.3615C63.2756 16.708 63.1203 17.0366 62.994 17.3455C62.9904 17.3562 62.9849 17.3651 62.9813 17.3759C62.7719 17.8937 62.6672 18.3973 62.6672 18.8866C62.6672 19.5653 62.8965 20.0403 63.3532 20.3135C63.8099 20.5867 64.3424 20.7242 64.9525 20.7242C65.3912 20.7242 65.8371 20.6403 66.2956 20.4707C66.7523 20.301 67.218 20.0706 67.6946 19.7795C68.1693 19.4867 68.6404 19.1492 69.108 18.7616C69.5737 18.3759 70.025 17.967 70.4654 17.533C70.6839 17.3169 70.8969 17.0991 71.1063 16.8812C71.6604 16.3026 72.1803 15.7186 72.6641 15.1311C73.3302 14.3221 73.8826 13.6346 74.3212 13.0685L74.1497 12.9274H74.1443Z" fill="#9546E8"/>
<path d="M87.8201 12.8989C87.3056 13.5025 86.82 13.9543 86.3633 14.2543C86.1449 14.3989 85.9175 14.5079 85.6864 14.5847C85.4355 14.6668 85.1755 14.7079 84.9066 14.7079C84.3741 14.7079 83.9408 14.5382 83.6087 14.1989C83.2747 13.8596 83.0617 13.4078 82.9661 12.8435C82.8325 12.072 82.4715 11.4131 81.8812 10.8666C81.2909 10.322 80.4822 10.0469 79.4551 10.0469C78.5038 10.0469 77.5326 10.2487 76.5434 10.6541C75.5542 11.0577 74.6498 11.6042 73.8302 12.2917C73.0125 12.9792 72.3464 13.7793 71.832 14.6918C71.5197 15.249 71.3012 15.8222 71.1803 16.4098C71.1478 16.5651 71.1207 16.7223 71.1027 16.8794C71.0738 17.1044 71.0612 17.3295 71.0612 17.558C71.0612 18.5938 71.3753 19.4081 72.0034 20.001C72.6316 20.5939 73.4692 20.8921 74.5162 20.8921C75.5054 20.8921 76.4585 20.7082 77.3701 20.3403C78.2835 19.9724 79.1121 19.4742 79.854 18.8438C80.5959 18.2134 81.2295 17.4777 81.753 16.6401C82.2765 15.8008 82.6538 14.9115 82.8812 13.9704C83.1466 14.3097 83.4426 14.574 83.7657 14.7615C84.0889 14.9508 84.4697 15.0436 84.9084 15.0436C85.0871 15.0436 85.2622 15.0275 85.4319 14.9954C85.8597 14.915 86.2604 14.7329 86.6359 14.4507C87.1594 14.0561 87.6107 13.6132 87.9916 13.1239L87.8201 12.8989ZM80.3396 13.3507C80.1861 13.9346 79.9731 14.5454 79.6969 15.1865C79.4208 15.8276 79.0976 16.4669 78.7258 17.108C78.3557 17.7473 77.9496 18.3224 77.5127 18.8313C77.0741 19.3403 76.6192 19.7546 76.1426 20.0724C75.6661 20.3939 75.1895 20.5528 74.7148 20.5528C74.2761 20.5528 73.9584 20.4207 73.758 20.1582C73.5577 19.8939 73.4584 19.5278 73.4584 19.0563C73.4584 18.6617 73.5342 18.1724 73.6876 17.5884C73.8393 17.0044 74.0541 16.3937 74.3303 15.7526C74.6065 15.1133 74.9296 14.4722 75.3014 13.8328C75.6733 13.1935 76.0776 12.6185 76.5163 12.1095C76.9531 11.6006 77.4098 11.1881 77.8864 10.8666C78.3611 10.547 78.8377 10.3862 79.3143 10.3862C79.7529 10.3862 80.0706 10.5184 80.271 10.7827C80.4714 11.047 80.5706 11.4131 80.5706 11.8845C80.5706 12.281 80.493 12.7703 80.3414 13.3542L80.3396 13.3507Z" fill="#9546E8"/>
<path d="M101.438 12.8149C101.037 13.3042 100.59 13.79 100.095 14.2703C99.6004 14.7507 99.0679 15.1918 98.4957 15.5972C98.4397 15.6365 98.382 15.6776 98.3242 15.7151C97.8061 16.0704 97.2682 16.3794 96.7104 16.6419C96.0912 16.9348 95.4594 17.1455 94.8114 17.2776L94.7536 17.2205C95.324 16.6169 95.8096 15.9026 96.2104 15.074C96.6093 14.2453 96.8097 13.3685 96.8097 12.447C96.8097 11.7327 96.6003 11.1523 96.1815 10.7112C95.7627 10.2684 95.2103 10.0469 94.5244 10.0469C93.8384 10.0469 93.1687 10.2076 92.5694 10.5273C91.9701 10.847 91.4087 11.247 90.8852 11.7274C90.3617 12.2077 89.8761 12.7292 89.4285 13.2953C88.9808 13.8596 88.5566 14.3793 88.1576 14.8489L88.0999 14.7918L94.6941 4.85022L91.6109 4.9913C89.636 8.17896 87.6594 11.3756 85.681 14.5846C85.5943 14.7222 85.5095 14.8597 85.4265 14.9972C84.9517 15.7651 84.477 16.5347 84.004 17.3044C82.4895 19.7635 80.9714 22.2136 79.4532 24.653H82.4083C83.5545 22.7011 84.6683 20.7296 85.8597 18.8152C86.7442 17.3937 87.6161 16.1044 88.4717 14.9454C89.3274 13.7882 90.1361 12.8417 90.8978 12.1077C91.6596 11.3738 92.3257 11.0059 92.8961 11.0059C93.1434 11.0059 93.342 11.0523 93.4954 11.147C93.6471 11.2398 93.7662 11.3684 93.8529 11.5273C93.9377 11.6863 93.9955 11.8666 94.0243 12.0631C94.0532 12.2613 94.0677 12.4631 94.0677 12.6703C94.0677 13.1989 94.0009 13.7114 93.8673 14.2096C93.7337 14.7079 93.5676 15.174 93.3673 15.6079C93.1669 16.0419 92.9575 16.4312 92.7391 16.7794C92.5189 17.1276 92.3257 17.4151 92.1542 17.6419C91.7535 17.6991 91.2553 17.7741 90.6559 17.867C90.0566 17.9616 89.4808 18.0884 88.9284 18.2473C88.3761 18.4081 87.9049 18.6152 87.515 18.8688C87.1251 19.1224 86.9301 19.4492 86.9301 19.8438C86.9301 20.2385 87.0782 20.4885 87.3724 20.6492C87.6684 20.8082 88.015 20.8903 88.4158 20.8903C88.9483 20.8903 89.4898 20.7867 90.0422 20.5796C90.5946 20.3724 91.1379 20.1081 91.6704 19.7885C92.203 19.4688 92.7066 19.1206 93.1832 18.7438C93.6579 18.367 94.0875 18.0098 94.4684 17.6705C95.2681 17.5384 96.0244 17.308 96.7375 16.9794C97.2393 16.749 97.7122 16.4901 98.1563 16.2008C98.3459 16.0794 98.53 15.9526 98.7087 15.8204C99.308 15.3793 99.8549 14.9132 100.35 14.4221C100.844 13.9328 101.272 13.4614 101.635 13.0096L101.434 12.8113L101.438 12.8149ZM91.3311 18.7599C91.0838 19.0331 90.8166 19.2885 90.5314 19.5224C90.2462 19.7581 89.9556 19.9599 89.6595 20.1296C89.3635 20.2992 89.0837 20.3832 88.8183 20.3832C88.284 20.3832 88.0186 20.176 88.0186 19.7617C88.0186 19.442 88.1757 19.1777 88.4898 18.9706C88.8039 18.7634 89.1757 18.5991 89.6036 18.4759C90.0314 18.3527 90.47 18.2545 90.9177 18.1795C91.3654 18.1045 91.712 18.0473 91.9611 18.0098C91.7896 18.2366 91.5802 18.4848 91.3329 18.7581L91.3311 18.7599Z" fill="#9546E8"/>
<path d="M112.801 12.8435C112.287 13.5025 111.689 14.2132 111.004 14.9757C110.318 15.7383 109.605 16.4687 108.863 17.1651C107.891 18.0688 106.926 18.7563 105.965 19.2277C105.005 19.6992 104.124 19.9331 103.324 19.9331C102.525 19.9331 101.868 19.6796 101.411 19.1706C100.954 18.6616 100.725 18.0027 100.725 17.1937C100.725 16.8937 100.772 16.5544 100.868 16.1776C101.211 16.1026 101.649 16.0079 102.182 15.8954C102.714 15.7829 103.285 15.6401 103.895 15.4722C104.505 15.3025 105.117 15.1043 105.736 14.8793C106.355 14.6543 106.911 14.39 107.408 14.0882C107.902 13.7864 108.307 13.4489 108.621 13.0703C108.935 12.6953 109.092 12.2792 109.092 11.8274C109.092 11.2631 108.863 10.8255 108.406 10.5148C107.949 10.2041 107.31 10.0487 106.492 10.0487C105.599 10.0487 104.651 10.2666 103.651 10.6987C102.653 11.1327 101.734 11.697 100.897 12.3935C100.059 13.0899 99.364 13.881 98.8116 14.765C98.6148 15.0811 98.4524 15.399 98.326 15.7169C98.261 15.8794 98.2051 16.0419 98.1599 16.2044C98.0426 16.6187 97.983 17.0312 97.983 17.4473C97.983 18.4652 98.2971 19.2938 98.9253 19.9331C99.5535 20.5725 100.409 20.8939 101.494 20.8939C102.045 20.8939 102.617 20.835 103.205 20.7153C103.756 20.6046 104.323 20.4439 104.906 20.2296C105.043 20.1796 105.18 20.1242 105.319 20.0653C106.4 19.5992 107.525 18.8492 108.689 17.8134C109.623 16.9669 110.426 16.1562 111.101 15.3847C111.776 14.6132 112.41 13.8328 113 13.0417L112.8 12.8435H112.801ZM102.936 12.4328C103.422 11.8595 103.94 11.3738 104.492 10.9791C105.043 10.5844 105.557 10.3862 106.034 10.3862C106.263 10.3862 106.449 10.4434 106.592 10.5559C106.734 10.6684 106.805 10.8577 106.805 11.1202C106.805 11.572 106.644 12.047 106.319 12.547C105.994 13.0453 105.563 13.5167 105.019 13.9596C104.476 14.4025 103.853 14.7972 103.149 15.1454C102.445 15.4936 101.703 15.7419 100.922 15.8936C101.036 15.4222 101.279 14.8722 101.651 14.24C102.023 13.6096 102.451 13.0078 102.936 12.4328Z" fill="#9546E8"/>
<path d="M10.1322 23.6708L10.6954 20.5939L10.7839 20.1242L11.2767 17.4366" fill="#9546E8"/>
<path d="M22.1545 27.4514C21.9072 27.6782 21.6075 27.9032 21.2555 28.13C20.9035 28.3568 20.5172 28.5639 20.1002 28.7514C20.0623 28.7693 20.0226 28.7854 19.9847 28.8032C19.602 28.9675 19.2067 29.1014 18.8023 29.2032C18.3547 29.3157 17.9034 29.3729 17.4467 29.3729C17.0658 29.3729 16.6993 29.355 16.3473 29.3157C15.9953 29.2782 15.6578 29.1836 15.3347 29.0336C15.8112 28.3943 16.286 27.6746 16.7625 26.8728C17.2373 26.0727 17.6669 25.2441 18.0478 24.3869C18.4287 23.5315 18.7374 22.6547 18.9756 21.76C19.2139 20.8653 19.333 20.0046 19.333 19.1759C19.333 17.858 19.0605 16.774 18.5189 15.9276C17.9756 15.0793 17.1344 14.6561 15.9917 14.6561C15.535 14.6561 15.0549 14.7329 14.5494 14.8829C14.0458 15.0347 13.488 15.3918 12.8779 15.9561C11.811 16.0508 10.7514 16.3329 9.6954 16.8044C8.63939 17.2741 7.63393 17.8687 6.68262 18.5831C5.73131 19.2992 4.84679 20.1224 4.02726 21.0546C3.20953 21.9868 2.50011 22.9654 1.9008 23.9923C1.3015 25.0191 0.833966 26.0781 0.50182 27.1692C0.169674 28.2603 0.00360107 29.3247 0.00360107 30.3604C0.00360107 31.039 0.0848324 31.6837 0.24549 32.2945C0.407953 32.907 0.684139 33.4517 1.07405 33.9321C1.46396 34.4124 1.97842 34.7928 2.61564 35.075C3.25285 35.3571 4.04712 35.4982 5.00023 35.4982C6.02736 35.4982 7.01657 35.3196 7.96969 34.9607C8.921 34.6035 9.81996 34.1321 10.6666 33.5499C11.515 32.9659 12.3074 32.3016 13.0512 31.5587C13.7931 30.814 14.4682 30.0658 15.0783 29.314C15.8004 29.5783 16.6109 29.7086 17.5062 29.7086C18.2066 29.7086 18.9359 29.564 19.6905 29.2747C19.7753 29.2425 19.862 29.2086 19.9468 29.1711C20.7934 28.8139 21.5877 28.305 22.3314 27.646L22.1599 27.4478L22.1545 27.4514ZM12.5764 30.8551C11.9952 31.5801 11.3381 32.2445 10.6052 32.8463C9.8723 33.4499 9.0961 33.9535 8.27837 34.3589C7.45883 34.7625 6.63027 34.966 5.79449 34.966C5.24212 34.966 4.78181 34.8446 4.40995 34.5999C4.0399 34.3553 3.74385 34.0303 3.52543 33.6249C3.30701 33.2213 3.14996 32.7534 3.05429 32.2266C2.95862 31.698 2.91168 31.1533 2.91168 30.5872C2.91168 29.7033 3.01638 28.7657 3.22578 27.7764C3.43517 26.7888 3.73483 25.7959 4.12474 24.7977C4.51465 23.7994 4.9894 22.8297 5.5526 21.8886C6.114 20.9475 6.75122 20.0956 7.46605 19.3331C8.17908 18.5706 8.95529 17.9223 9.79288 17.3848C10.6305 16.8473 11.524 16.4865 12.4753 16.2972L12.5331 16.3526C11.7912 17.1437 11.2063 18.0527 10.7767 19.0777C10.3489 20.1046 10.1341 21.1635 10.1341 22.2547C10.1341 22.9333 10.2243 23.5958 10.4048 24.2458C10.5853 24.8959 10.8435 25.5066 11.1756 26.0817C11.5078 26.6567 11.9121 27.1746 12.3887 27.6353C12.8634 28.0978 13.3977 28.4871 13.988 28.8086C13.627 29.4479 13.1559 30.1319 12.5746 30.8569L12.5764 30.8551ZM14.2173 28.4961C13.6469 28.1764 13.1739 27.7514 12.8039 27.2246C12.432 26.696 12.1341 26.1174 11.9049 25.487C11.6756 24.8566 11.515 24.2012 11.4193 23.5226C11.3254 22.844 11.2767 22.1957 11.2767 21.5743C11.2767 21.1403 11.3092 20.676 11.3778 20.176C11.4446 19.6778 11.5493 19.1867 11.6919 18.7063C11.8345 18.2259 12.0096 17.7741 12.219 17.3508C12.4284 16.9276 12.6757 16.5651 12.9609 16.2633C13.3797 16.2454 13.7263 16.2883 14.0025 16.3919C14.2787 16.4954 14.5025 16.6365 14.674 16.8151C14.8455 16.9937 14.9682 17.2098 15.0458 17.4651C15.1217 17.7187 15.1596 17.9795 15.1596 18.242C15.1596 18.4116 15.1487 18.5991 15.1307 18.8063C15.1126 19.0134 15.0837 19.1742 15.0458 19.2867L15.3599 19.3152C15.3978 19.1652 15.4303 19.0099 15.4592 18.8491C15.4881 18.6884 15.5025 18.4955 15.5025 18.2688C15.5025 17.9866 15.4646 17.7044 15.3888 17.4223C15.313 17.1401 15.1884 16.8901 15.017 16.674C14.8455 16.4579 14.618 16.2847 14.331 16.1544C14.0458 16.024 13.6938 15.949 13.275 15.9311C13.4645 15.7508 13.683 15.6043 13.9321 15.4954C14.1794 15.3865 14.4754 15.3311 14.8166 15.3311C15.2354 15.3311 15.5874 15.4222 15.8726 15.6061C16.1578 15.7883 16.3871 16.0436 16.5585 16.3687C16.73 16.6937 16.8528 17.074 16.9304 17.5062C17.0062 17.9402 17.0441 18.4009 17.0441 18.8902C17.0441 19.6635 16.9773 20.4671 16.8438 21.3046C16.7102 22.1422 16.5206 22.9815 16.2733 23.819C16.026 24.6584 15.7264 25.4763 15.3744 26.2763C15.0224 27.0781 14.6361 27.8157 14.2191 28.4943L14.2173 28.4961Z" fill="#9546E8"/>
<path d="M36.4061 27.621C35.6443 28.6193 34.9403 29.4997 34.2923 30.2622C33.9421 30.6748 33.5829 31.0801 33.2164 31.4784C32.9059 31.8177 32.5882 32.1516 32.2651 32.4784C31.4077 33.3624 30.6333 34.0035 29.9383 34.3982C29.2433 34.7946 28.6963 34.9911 28.2974 34.9911C28.088 34.9911 27.9364 34.9303 27.8407 34.8071C27.745 34.6839 27.6981 34.5214 27.6981 34.3124C27.6981 33.9553 27.893 33.3803 28.283 32.5891C28.6729 31.798 29.1873 30.8712 29.8246 29.8069C30.4618 28.7425 31.191 27.5853 32.0088 26.3317C32.8265 25.0798 33.6605 23.8137 34.5071 22.5333C35.0595 21.6957 35.6064 20.8689 36.1425 20.0528H33.1803L29.2379 26.4585C28.7992 25.2531 27.9436 24.6512 26.6674 24.6512C25.7359 24.6512 24.7936 24.878 23.8423 25.3298C22.8892 25.7817 22.0245 26.3745 21.2447 27.1103C20.6978 27.6246 20.2212 28.1889 19.815 28.7997C19.7103 28.955 19.6111 29.114 19.5172 29.2747C19.4522 29.3854 19.3908 29.4961 19.3313 29.6086C18.8367 30.5408 18.5894 31.4784 18.5894 32.4195C18.5894 32.7963 18.6309 33.1588 18.7175 33.5071C18.8024 33.8553 18.945 34.166 19.1453 34.4392C19.3457 34.7125 19.602 34.9286 19.9161 35.0893C20.2284 35.25 20.6147 35.3304 21.0714 35.3304C21.9848 35.3304 22.7935 35.1232 23.4975 34.7089C24.2015 34.2946 24.8496 33.7874 25.4399 33.1838L25.4976 33.241C25.4399 33.4856 25.4308 33.7392 25.4687 34.0035C25.5067 34.2678 25.6059 34.5125 25.7684 34.7375C25.9291 34.9625 26.1493 35.1464 26.4255 35.2893C26.7017 35.4304 27.0573 35.5 27.4959 35.5C28.4472 35.5 29.3408 35.2179 30.1784 34.6518C31.0159 34.0874 31.8914 33.3338 32.8048 32.3927C32.9276 32.2641 33.0521 32.1338 33.1767 31.9998C33.4168 31.7409 33.6587 31.4712 33.9042 31.1926C34.276 30.7694 34.6334 30.3497 34.9746 29.9354C35.3176 29.5211 35.6353 29.1265 35.9313 28.7497C36.2274 28.3729 36.4783 28.0443 36.6877 27.7603L36.4025 27.6193L36.4061 27.621ZM26.4273 31.4194C25.8839 32.2391 25.2846 32.9356 24.6275 33.5088C23.9705 34.0839 23.3387 34.3714 22.7285 34.3714C22.2141 34.3714 21.853 34.1928 21.6437 33.8339C21.4343 33.4767 21.3296 33.0713 21.3296 32.6195C21.3296 31.923 21.501 31.1319 21.844 30.2462C22.187 29.3622 22.6238 28.5336 23.1582 27.7603C23.6907 26.9889 24.2755 26.3335 24.9146 25.7977C25.5518 25.2602 26.1655 24.9923 26.7558 24.9923C27.1945 24.9923 27.5555 25.1191 27.8407 25.3727C28.1259 25.6263 28.2685 26.0281 28.2685 26.5728C28.2685 27.2139 28.097 27.9764 27.7541 28.8604C27.4111 29.7444 26.9688 30.598 26.4273 31.4159V31.4194Z" fill="#9546E8"/>
<path d="M48.1647 27.4514C47.6503 28.1103 47.051 28.8211 46.365 29.5836C45.9354 30.064 45.4931 30.5301 45.04 30.9819C44.7729 31.2498 44.5003 31.5141 44.2259 31.773C43.2548 32.6766 42.289 33.3642 41.3287 33.8356C40.3665 34.3071 39.4874 34.5428 38.6878 34.5428C37.8881 34.5428 37.231 34.2892 36.7743 33.7803C36.3176 33.2713 36.0883 32.6141 36.0883 31.8034C36.0883 31.5016 36.1353 31.1641 36.231 30.7873C36.5739 30.7123 37.0108 30.6176 37.5451 30.5051C38.0776 30.3926 38.648 30.2515 39.2582 30.0819C39.8665 29.9122 40.4803 29.714 41.0994 29.489C41.7186 29.2622 42.2746 28.9997 42.771 28.6979C43.2656 28.3978 43.6699 28.0585 43.984 27.6817C44.2981 27.3049 44.4552 26.8906 44.4552 26.4388C44.4552 25.8745 44.2277 25.437 43.7692 25.1263C43.3125 24.8155 42.6753 24.6602 41.8558 24.6602C40.9622 24.6602 40.0145 24.878 39.0145 25.3102C38.0144 25.7441 37.0974 26.3085 36.2598 27.0049C35.4222 27.7014 34.7273 28.4925 34.1749 29.3783C33.7417 30.0747 33.4781 30.7765 33.3861 31.4855C33.3626 31.6587 33.3499 31.8337 33.3481 32.007C33.3481 32.0248 33.3481 32.0427 33.3481 32.0623C33.3481 33.0784 33.6622 33.9088 34.2904 34.5482C34.9186 35.1875 35.7761 35.5089 36.8609 35.5089C37.9458 35.5089 39.065 35.2875 40.2727 34.8446C41.4803 34.4035 42.7421 33.5981 44.0562 32.4302C44.2404 32.2623 44.4209 32.0945 44.596 31.9302C45.3036 31.2641 45.9282 30.6212 46.4697 30.0015C47.1448 29.23 47.7784 28.4479 48.3687 27.6567L48.1683 27.4585L48.1647 27.4514ZM38.2996 27.0406C38.7852 26.4674 39.3033 25.9817 39.8557 25.5852C40.408 25.1905 40.9225 24.9923 41.3973 24.9923C41.6265 24.9923 41.8106 25.0495 41.9551 25.162C42.0977 25.2745 42.1681 25.4638 42.1681 25.7263C42.1681 26.1781 42.0056 26.6531 41.6825 27.1514C41.3594 27.6514 40.9261 28.121 40.3846 28.5639C39.8412 29.0068 39.2185 29.4033 38.5145 29.7497C37.8105 30.0979 37.0685 30.3479 36.2869 30.498C36.4006 30.0283 36.6443 29.4765 37.0144 28.8461C37.3862 28.2157 37.8141 27.6121 38.2996 27.0389V27.0406Z" fill="#9546E8"/>
<path d="M55.7301 27.5353C55.1019 28.3639 54.4268 29.1818 53.7029 29.9926C53.1163 30.648 52.5675 31.2355 52.0567 31.757C51.9375 31.8784 51.8202 31.998 51.7046 32.1106C50.8111 32.957 49.9717 33.6213 49.1919 34.1017C48.4121 34.5821 47.7839 34.8214 47.3073 34.8214C47.06 34.8214 46.8687 34.7464 46.7369 34.5964C46.6033 34.4446 46.5365 34.2482 46.5365 34.0035C46.5365 33.7214 46.6178 33.3928 46.7802 33.0142C46.9409 32.6374 47.199 32.1338 47.551 31.5034C47.903 30.873 48.3742 30.0819 48.9644 29.13C49.5547 28.18 50.2768 27.0067 51.1342 25.6138H54.8167L55.073 25.1048H51.4483L53.8167 21.4332L50.7335 21.5457L48.5926 25.1048H46.3939L46.1936 25.6138H48.3345C47.764 26.5924 47.2297 27.4603 46.7351 28.2121C46.2405 28.9658 45.8073 29.6533 45.4372 30.2747C45.2928 30.5176 45.1592 30.7533 45.0383 30.9819C44.8632 31.3123 44.7133 31.6248 44.5906 31.923C44.5816 31.9427 44.5743 31.9641 44.5653 31.9855C44.3559 32.5034 44.2512 33.007 44.2512 33.4963C44.2512 34.1749 44.4805 34.65 44.9372 34.9232C45.3939 35.1964 45.9264 35.3321 46.5365 35.3321C46.9752 35.3321 47.421 35.2482 47.8778 35.0786C48.3345 34.9089 48.802 34.6785 49.2767 34.3875C49.7515 34.0964 50.2226 33.7571 50.6902 33.3713C51.0747 33.0517 51.4519 32.7159 51.8166 32.3641C51.8942 32.2909 51.97 32.2159 52.0458 32.1409C52.8455 31.3498 53.5784 30.5498 54.2445 29.7408C54.9106 28.9318 55.463 28.2443 55.8998 27.6782L55.7283 27.5371L55.7301 27.5353Z" fill="#9546E8"/>
<path d="M69.4347 27.4228C69.2434 27.6674 69.0069 27.9639 68.7199 28.3121C68.4347 28.6603 68.117 29.0425 67.7632 29.455C67.4112 29.8693 67.0303 30.2979 66.6205 30.7408C66.3263 31.0587 66.0284 31.3747 65.7306 31.689C65.6133 31.8123 65.4959 31.9337 65.3786 32.0551C65.0356 32.3944 64.6746 32.7337 64.2937 33.0713C63.9128 33.4106 63.541 33.707 63.1799 33.9606C62.8189 34.2142 62.4741 34.4231 62.151 34.5821C61.8279 34.7428 61.5517 34.8231 61.3224 34.8231C60.9614 34.8231 60.7809 34.616 60.7809 34.2017C60.7809 33.7874 60.9091 33.307 61.1654 32.7605C61.4217 32.2159 61.7791 31.5694 62.2358 30.8265C62.6925 30.0818 63.2395 29.2318 63.8767 28.271C64.5139 27.3103 65.2035 26.2191 65.9472 24.9958L63.0066 25.2226L60.5516 29.1764C60.113 29.8925 59.6238 30.5783 59.0823 31.239C58.5389 31.898 57.992 32.4819 57.4414 32.9909C56.889 33.4999 56.3601 33.9052 55.8565 34.2052C55.351 34.5071 54.9178 34.6571 54.5568 34.6571C54.3474 34.6571 54.1813 34.5821 54.0567 34.432C53.9322 34.282 53.8708 34.0927 53.8708 33.8677C53.8708 33.1516 54.342 32.0641 55.2842 30.6051C56.2265 29.1461 57.4486 27.2763 58.9523 24.9976L55.9251 25.1101C54.5929 27.2745 53.5369 29.0353 52.7552 30.3908C52.4682 30.8908 52.2318 31.3462 52.0512 31.7605C51.9574 31.973 51.8779 32.1766 51.813 32.3659C51.6613 32.8052 51.5855 33.1838 51.5855 33.4999C51.5855 33.9892 51.7389 34.4178 52.0422 34.7856C52.3473 35.1517 52.795 35.3357 53.3852 35.3357C53.9755 35.3357 54.5604 35.2232 55.0839 34.9964C55.6074 34.7696 56.0966 34.4874 56.5533 34.1481C57.01 33.8088 57.4378 33.4374 57.8385 33.032C58.2375 32.6284 58.6093 32.2462 58.9523 31.8891L59.0101 31.9462C58.9144 32.098 58.8331 32.3141 58.7664 32.5962C58.6996 32.8784 58.6653 33.1998 58.6653 33.557C58.6653 34.066 58.8368 34.4892 59.1797 34.8285C59.5227 35.1678 59.9794 35.3374 60.5498 35.3374C61.3495 35.3374 62.1582 35.0642 62.9759 34.5178C63.6041 34.0999 64.2775 33.5534 64.9941 32.8784C65.2125 32.6748 65.4345 32.4587 65.6602 32.2301C66.4599 31.4212 67.2108 30.5961 67.9166 29.7586C68.6206 28.921 69.2019 28.1996 69.6586 27.5978L69.4311 27.4281L69.4347 27.4228Z" fill="#9546E8"/>
<path d="M82.8524 27.5907C82.5094 28.005 81.9949 28.6229 81.3108 29.4408C80.818 30.0301 80.2891 30.6319 79.7277 31.2462C79.5111 31.4855 79.2854 31.7266 79.0562 31.9695C78.0092 33.0606 77.177 33.8089 76.5578 34.2142C75.9387 34.6196 75.4964 34.8214 75.2311 34.8214C74.9657 34.8214 74.7744 34.7518 74.6606 34.6107C74.5469 34.4696 74.4891 34.2857 74.4891 34.0589C74.4891 33.5321 74.6931 32.9624 75.1029 32.3499C75.5109 31.7373 75.964 31.098 76.4586 30.4283C76.9532 29.7604 77.4063 29.0925 77.816 28.4229C78.224 27.755 78.4298 27.0996 78.4298 26.4585C78.4298 25.9495 78.2673 25.5227 77.9442 25.1745C77.6193 24.8263 77.1445 24.6512 76.5163 24.6512C75.7744 24.6512 75.0325 24.878 74.2888 25.3298C73.5469 25.7817 72.8519 26.3085 72.2038 26.9121C71.5576 27.5157 70.98 28.1264 70.4763 28.7479C69.9727 29.3693 69.5864 29.8497 69.3192 30.189L69.2633 30.1319L72.9746 24.9923L69.72 25.1048C68.7308 26.8174 67.7253 28.4889 66.7072 30.1176C66.3805 30.6391 66.0555 31.1623 65.7306 31.6873C65.4851 32.0802 65.2414 32.4749 64.9995 32.8713C64.5537 33.5946 64.1096 34.3196 63.6655 35.0464L66.5501 34.9607C66.7974 34.491 67.1314 33.9249 67.5484 33.266C67.9672 32.607 68.4383 31.9248 68.9618 31.2176C69.4853 30.5123 70.0413 29.8069 70.6316 29.0997C71.2218 28.3925 71.8031 27.7621 72.3735 27.2067C72.9439 26.6513 73.4873 26.1995 74.0018 25.8513C74.5162 25.5031 74.9621 25.3281 75.343 25.3281C75.6101 25.3281 75.8087 25.3941 75.9423 25.5263C76.0759 25.6584 76.1427 25.8281 76.1427 26.0352C76.1427 26.4692 75.9369 26.9764 75.5289 27.5603C75.1191 28.1443 74.6679 28.7604 74.1714 29.4104C73.6768 30.0604 73.2237 30.723 72.8158 31.4016C72.406 32.0802 72.202 32.7392 72.202 33.3785C72.202 33.8874 72.3735 34.3392 72.7165 34.7339C73.0595 35.1286 73.592 35.3268 74.3159 35.3268C75.0397 35.3268 75.7762 35.1107 76.4712 34.6768C77.1662 34.2428 78.0074 33.5088 78.9984 32.4731C79.2132 32.2498 79.4244 32.0266 79.6338 31.8034C80.2187 31.1748 80.7783 30.5408 81.3108 29.9015C82.0346 29.0354 82.643 28.3104 83.1376 27.7282L82.8524 27.5871V27.5907Z" fill="#9546E8"/>
<path d="M97.4126 27.621C96.6508 28.6193 95.9468 29.4997 95.2988 30.2622C94.9486 30.6747 94.5912 31.0801 94.2247 31.4765C93.9142 31.8158 93.5947 32.1498 93.2716 32.4784C92.416 33.3624 91.6398 34.0035 90.9448 34.3981C90.2498 34.7946 89.7028 34.991 89.3039 34.991C89.0945 34.991 88.9429 34.9303 88.8472 34.8071C88.7515 34.6838 88.7046 34.5213 88.7046 34.3124C88.7046 33.9552 88.8996 33.3802 89.2895 32.5891C89.6794 31.798 90.1938 30.8712 90.8311 29.8068C91.4683 28.7425 92.1957 27.5853 93.0153 26.3316C93.833 25.0798 94.667 23.8137 95.5136 22.5332C96.066 21.6957 96.6129 20.8689 97.149 20.0527H94.1886L90.2444 26.4584C89.8057 25.253 88.9501 24.6512 87.6757 24.6512C86.7424 24.6512 85.8001 24.878 84.8488 25.3298C83.8975 25.7816 83.031 26.3745 82.2512 27.1102C81.4696 27.8442 80.8324 28.6782 80.3378 29.6104C80.0489 30.1533 79.8432 30.6997 79.724 31.2462C79.6825 31.4337 79.65 31.6212 79.6302 31.8087C79.6067 32.0123 79.5941 32.2177 79.5941 32.4212C79.5941 32.798 79.6374 33.1606 79.7222 33.5088C79.8071 33.857 79.9497 34.1678 80.15 34.441C80.3504 34.7142 80.6067 34.9303 80.9208 35.091C81.2349 35.2517 81.6194 35.3321 82.0761 35.3321C82.9895 35.3321 83.7982 35.1249 84.504 34.7106C85.208 34.2963 85.8543 33.7892 86.4446 33.1856L86.5023 33.2427C86.4446 33.4874 86.4355 33.7409 86.4734 34.0052C86.5114 34.2695 86.6106 34.5142 86.7731 34.7392C86.9356 34.9642 87.154 35.1482 87.4302 35.291C87.7064 35.4321 88.0638 35.5017 88.5006 35.5017C89.4519 35.5017 90.3473 35.2196 91.1831 34.6535C92.0206 34.0892 92.8961 33.3356 93.8095 32.3944C93.9341 32.2659 94.0568 32.1355 94.1814 31.9998C94.4215 31.7408 94.6634 31.473 94.9089 31.1944C95.2807 30.7712 95.6381 30.3515 95.9793 29.9372C96.3223 29.5229 96.64 29.1282 96.936 28.7514C97.2321 28.3746 97.483 28.046 97.6924 27.7621L97.4072 27.621H97.4126ZM87.4338 31.4194C86.8904 32.2391 86.2911 32.9355 85.6341 33.5088C84.977 34.0838 84.3452 34.3713 83.735 34.3713C83.2206 34.3713 82.8596 34.1928 82.6502 33.8338C82.4408 33.4766 82.3361 33.0713 82.3361 32.6195C82.3361 31.923 82.5076 31.1319 82.8505 30.2461C83.1935 29.3622 83.6322 28.5335 84.1647 27.7603C84.6972 26.9888 85.2839 26.3334 85.9211 25.7977C86.5583 25.2602 87.172 24.9923 87.7623 24.9923C88.201 24.9923 88.562 25.1191 88.8472 25.3727C89.1324 25.6262 89.275 26.0281 89.275 26.5727C89.275 27.2138 89.1035 27.9764 88.7606 28.8603C88.4176 29.7443 87.9753 30.5979 87.4338 31.4158V31.4194ZM96.9559 15.5597L96.6129 16.1168C97.1635 16.0061 97.7303 15.8454 98.3134 15.6311C98.4506 15.5811 98.5877 15.5257 98.7267 15.4668L96.9559 15.5597Z" fill="#9546E8"/>
<path d="M109.003 27.4514C108.489 28.1103 107.891 28.8211 107.206 29.5836C106.52 30.3462 105.807 31.0766 105.065 31.773C104.093 32.6766 103.128 33.3642 102.167 33.8356C101.207 34.3071 100.326 34.5428 99.5264 34.5428C98.7267 34.5428 98.0697 34.2892 97.613 33.7803C97.1563 33.2713 96.927 32.6141 96.927 31.8034C96.927 31.5016 96.9758 31.1641 97.0696 30.7873C97.4126 30.7123 97.8513 30.6176 98.3838 30.5051C98.9163 30.3926 99.4867 30.2515 100.097 30.0819C100.707 29.9122 101.321 29.714 101.94 29.489C102.557 29.2622 103.115 28.9997 103.61 28.6979C104.104 28.3978 104.509 28.0585 104.823 27.6817C105.137 27.3049 105.294 26.8906 105.294 26.4388C105.294 25.8745 105.065 25.437 104.608 25.1263C104.151 24.8155 103.512 24.6602 102.694 24.6602C101.801 24.6602 100.853 24.878 99.8532 25.3102C98.8549 25.7441 97.9361 26.3085 97.0985 27.0049C96.2609 27.7014 95.5659 28.4925 95.0136 29.3783C94.5803 30.0747 94.3168 30.7748 94.2247 31.4819C94.2013 31.6569 94.1886 31.8302 94.1868 32.0052C94.1868 32.023 94.1868 32.0427 94.1868 32.0605C94.1868 33.0767 94.5009 33.9071 95.1291 34.5464C95.7573 35.1857 96.6129 35.5071 97.6978 35.5071C98.7827 35.5071 99.9019 35.2857 101.11 34.8428C102.317 34.4017 103.579 33.5963 104.893 32.4284C105.826 31.5802 106.63 30.7712 107.307 29.9997C107.982 29.2282 108.615 28.4461 109.206 27.655L109.005 27.4567L109.003 27.4514ZM99.1401 27.0406C99.6257 26.4674 100.144 25.9817 100.696 25.5852C101.247 25.1905 101.763 24.9923 102.238 24.9923C102.467 24.9923 102.653 25.0495 102.796 25.162C102.938 25.2745 103.009 25.4638 103.009 25.7263C103.009 26.1781 102.848 26.6531 102.523 27.1514C102.198 27.6514 101.767 28.121 101.223 28.5639C100.682 29.0068 100.057 29.4033 99.3531 29.7497C98.6473 30.0979 97.9054 30.3479 97.1256 30.498C97.2393 30.0283 97.483 29.4765 97.8549 28.8461C98.2267 28.2157 98.6527 27.6121 99.1401 27.0389V27.0406Z" fill="#9546E8"/>
</g>
<defs>
<clipPath id="clip0_79_1498">
<rect width="113" height="35" fill="white" transform="translate(0 0.5)"/>
</clipPath>
</defs>
</svg>
